<svg xmlns="http://www.w3.org/2000/svg" viewBox="0 0 253 227.53"><defs><style>.cls-1{fill:#233871;}.cls-2{opacity:0.8;}.cls-3{opacity:0.4;}.cls-4{opacity:0.6;}.cls-5{font-size:14px;fill:#fff;font-family:Avenir-Heavy, Avenir Heavy;font-weight:800;}.cls-6{letter-spacing:-0.02em;}.cls-7{opacity:0.5;}.cls-8{fill:none;stroke:#221f1f;}</style></defs><title>Ресурс 12</title><g id="Слой_2" data-name="Слой 2"><g id="Layer_1" data-name="Layer 1"><path class="cls-1" d="M109.18,57.8C144.45,57.8,173,44.86,173,28.9S144.45,0,109.18,0,45.32,12.94,45.32,28.9s28.59,28.9,63.86,28.9"/><g class="cls-2"><path class="cls-1" d="M189.14,170.73c35.27,0,63.86-12.94,63.86-28.91s-28.59-28.9-63.86-28.9-63.86,12.94-63.86,28.9,28.59,28.91,63.86,28.91"/></g><g class="cls-3"><path class="cls-1" d="M96.77,227.53c35.26,0,63.86-12.94,63.86-28.9s-28.6-28.9-63.86-28.9-63.86,12.94-63.86,28.9,28.59,28.9,63.86,28.9"/></g><g class="cls-4"><path class="cls-1" d="M63.86,123.18c35.27,0,63.86-12.94,63.86-28.9s-28.59-28.9-63.86-28.9S0,78.31,0,94.28s28.59,28.9,63.86,28.9"/></g><text class="cls-5" transform="translate(89.17 30.01)">Causes</text><text class="cls-5" transform="translate(145.9 144.58)">Consequences</text><text class="cls-5" transform="translate(66.32 201.38)">Outcomes</text><text class="cls-5" transform="translate(43.91 97.03)">E<tspan class="cls-6" x="6.89" y="0">ff</tspan><tspan x="14.81" y="0">ects</tspan></text><g class="cls-7"><line class="cls-8" x1="91.23" y1="40.72" x2="73.93" y2="76.6"/></g><g class="cls-7"><line class="cls-8" x1="96.74" y1="109.69" x2="137.93" y2="128.78"/></g><g class="cls-7"><line class="cls-8" x1="153.14" y1="160.46" x2="111.82" y2="182.83"/></g></g></g></svg>