<svg xmlns="http://www.w3.org/2000/svg" viewBox="0 0 415.17 148.85"><defs><style>.cls-1{fill:#000d3a;}.cls-2{opacity:0.7;}.cls-3{fill:#acb2c5;}.cls-19,.cls-32,.cls-4,.cls-5{font-size:14.66px;fill:#fff;}.cls-4{font-family:OpenSans-Semibold, Open Sans;font-weight:600;}.cls-5{font-family:OpenSans-Bold, Open Sans;font-weight:700;}.cls-10,.cls-11,.cls-12,.cls-13,.cls-14,.cls-15,.cls-16,.cls-17,.cls-18,.cls-19,.cls-28,.cls-29,.cls-30,.cls-31,.cls-32,.cls-44,.cls-45,.cls-46,.cls-47,.cls-48,.cls-49,.cls-50,.cls-51,.cls-6,.cls-7,.cls-8,.cls-9{font-family:Avenir-Book, Avenir Book;}.cls-10,.cls-11,.cls-12,.cls-13,.cls-14,.cls-15,.cls-16,.cls-17,.cls-18,.cls-28,.cls-29,.cls-30,.cls-31,.cls-44,.cls-45,.cls-46,.cls-47,.cls-48,.cls-49,.cls-50,.cls-51,.cls-6,.cls-7,.cls-8,.cls-9{font-weight:400;}.cls-19,.cls-39,.cls-6{letter-spacing:0.06em;}.cls-38,.cls-7{letter-spacing:-0.02em;}.cls-20,.cls-8{letter-spacing:0.07em;}.cls-22,.cls-9{letter-spacing:0em;}.cls-11,.cls-26{letter-spacing:-0.02em;}.cls-12,.cls-52{letter-spacing:0.06em;}.cls-13,.cls-23{letter-spacing:-0.02em;}.cls-14{letter-spacing:0.06em;}.cls-15,.cls-43{letter-spacing:-0.02em;}.cls-16,.cls-40{letter-spacing:0.03em;}.cls-17,.cls-36{letter-spacing:-0.02em;}.cls-18,.cls-37{letter-spacing:0em;}.cls-21,.cls-46{letter-spacing:-0.01em;}.cls-24{letter-spacing:0.06em;}.cls-25,.cls-45{letter-spacing:0.05em;}.cls-27{letter-spacing:0.02em;}.cls-28{letter-spacing:-0.09em;}.cls-29{letter-spacing:0.1em;}.cls-30{letter-spacing:-0.03em;}.cls-31{letter-spacing:0.06em;}.cls-33,.cls-49{letter-spacing:0.03em;}.cls-34{letter-spacing:-0.02em;}.cls-35{letter-spacing:0.07em;}.cls-41{letter-spacing:0em;}.cls-42{letter-spacing:0em;}.cls-44{letter-spacing:-0.04em;}.cls-47{letter-spacing:-0.01em;}.cls-48{letter-spacing:0.08em;}.cls-50{letter-spacing:0.07em;}.cls-51{letter-spacing:-0.02em;}.cls-53{letter-spacing:-0.02em;}</style></defs><title>Ресурс 6</title><g id="Слой_2" data-name="Слой 2"><g id="Layer_1" data-name="Layer 1"><rect class="cls-1" x="22.24" width="392.93" height="148.85"/><g class="cls-2"><polyline class="cls-3" points="48.41 74.26 0 1.07 0 147.45 48.97 74.26"/></g><text class="cls-4" transform="translate(70.03 22.4)">•</text><text class="cls-5" transform="translate(83.17 22.4)">A Stronger Libido: <tspan class="cls-6" x="133.96" y="0">In</tspan><tspan class="cls-7" x="147.27" y="0">c</tspan><tspan class="cls-8" x="153.49" y="0">r</tspan><tspan class="cls-9" x="159.36" y="0">e</tspan><tspan class="cls-10" x="166.77" y="0">a</tspan><tspan class="cls-11" x="173.83" y="0">s</tspan><tspan class="cls-9" x="179.31" y="0">e</tspan><tspan class="cls-12" x="186.72" y="0">d</tspan><tspan class="cls-13" x="195.8" y="0"> </tspan><tspan class="cls-14" x="198.66" y="0">d</tspan><tspan class="cls-9" x="207.75" y="0">e</tspan><tspan class="cls-15" x="215.15" y="0">s</tspan><tspan class="cls-16" x="220.63" y="0">i</tspan><tspan class="cls-8" x="224.5" y="0">r</tspan><tspan class="cls-9" x="230.38" y="0">e</tspan><tspan class="cls-17" x="237.78" y="0"> </tspan><tspan class="cls-18" x="240.64" y="0">a</tspan><tspan class="cls-6" x="247.7" y="0">n</tspan><tspan class="cls-14" x="256.67" y="0">d</tspan><tspan class="cls-13" x="265.76" y="0"> </tspan></text><text class="cls-19" transform="translate(82.43 39.99)">u<tspan class="cls-20" x="8.91" y="0">r</tspan><tspan class="cls-21" x="14.79" y="0">g</tspan><tspan class="cls-22" x="22.87" y="0">e</tspan><tspan class="cls-23" x="30.27" y="0"> </tspan><tspan class="cls-24" x="33.13" y="0">f</tspan><tspan class="cls-25" x="38.3" y="0">o</tspan><tspan class="cls-20" x="47.04" y="0">r</tspan><tspan class="cls-23" x="52.91" y="0"> </tspan><tspan class="cls-26" x="55.77" y="0">s</tspan><tspan class="cls-22" x="61.25" y="0">e</tspan><tspan class="cls-27" x="68.65" y="0">x.</tspan></text><text class="cls-4" transform="translate(70.03 67.63)">•</text><text class="cls-5" transform="translate(83.17 67.63)">Peak Erection Quality (PEQ): <tspan class="cls-28" x="208.63" y="0">F</tspan><tspan class="cls-16" x="214.39" y="0">i</tspan><tspan class="cls-8" x="218.26" y="0">r</tspan><tspan class="cls-29" x="224.14" y="0">m</tspan><tspan class="cls-30" x="237.77" y="0">,</tspan><tspan class="cls-13" x="240.34" y="0"> </tspan><tspan class="cls-31" x="243.19" y="0">f</tspan><tspan class="cls-6" x="248.37" y="0">u</tspan><tspan class="cls-16" x="257.28" y="0">l</tspan><tspan class="cls-10" x="261.18" y="0">l, </tspan><tspan x="270.78" y="0"> </tspan></text><text/><text class="cls-32" transform="translate(82.25 87.86)"><tspan class="cls-22">e</tspan><tspan x="7.4" y="0">a</tspan><tspan class="cls-26" x="14.47" y="0">s</tspan><tspan class="cls-33" x="19.95" y="0">i</tspan><tspan class="cls-22" x="23.82" y="0">e</tspan><tspan class="cls-20" x="31.22" y="0">r</tspan><tspan class="cls-34" x="37.1" y="0">-</tspan><tspan class="cls-35" x="41.35" y="0">t</tspan><tspan class="cls-25" x="47.3" y="0">o</tspan><tspan class="cls-36" x="56.03" y="0">-</tspan><tspan class="cls-37" x="60.29" y="0">a</tspan><tspan class="cls-38" x="67.35" y="0">c</tspan><tspan class="cls-39" x="73.56" y="0">h</tspan><tspan class="cls-40" x="82.53" y="0">i</tspan><tspan class="cls-22" x="86.4" y="0">e</tspan><tspan class="cls-41" x="93.81" y="0">v</tspan><tspan class="cls-42" x="100.87" y="0">e</tspan><tspan class="cls-23" x="108.27" y="0"> </tspan><tspan class="cls-22" x="111.13" y="0">e</tspan><tspan class="cls-20" x="118.53" y="0">r</tspan><tspan class="cls-22" x="124.41" y="0">e</tspan><tspan class="cls-38" x="131.81" y="0">c</tspan><tspan class="cls-35" x="138.03" y="0">t</tspan><tspan class="cls-40" x="143.98" y="0">i</tspan><tspan class="cls-25" x="147.85" y="0">o</tspan><tspan class="cls-39" x="156.58" y="0">n</tspan><tspan class="cls-43" x="165.55" y="0">s.</tspan></text><text class="cls-4" transform="translate(70.03 115.82)">•</text><text class="cls-5" transform="translate(83.17 115.82)">Increased Stamina: <tspan class="cls-44" x="143.85" y="0">L</tspan><tspan class="cls-45" x="150.22" y="0">o</tspan><tspan class="cls-6" x="158.96" y="0">n</tspan><tspan class="cls-46" x="167.93" y="0">g</tspan><tspan class="cls-47" x="176.01" y="0">-</tspan><tspan class="cls-16" x="180.34" y="0">l</tspan><tspan class="cls-10" x="184.24" y="0">a</tspan><tspan class="cls-15" x="191.31" y="0">s</tspan><tspan class="cls-48" x="196.79" y="0">t</tspan><tspan class="cls-49" x="202.74" y="0">i</tspan><tspan class="cls-6" x="206.61" y="0">n</tspan><tspan class="cls-46" x="215.58" y="0">g</tspan><tspan class="cls-13" x="223.66" y="0"> </tspan><tspan class="cls-9" x="226.51" y="0">e</tspan><tspan class="cls-50" x="233.92" y="0">r</tspan><tspan class="cls-9" x="239.79" y="0">e</tspan><tspan class="cls-51" x="247.2" y="0">c</tspan><tspan class="cls-48" x="253.41" y="0">t</tspan><tspan class="cls-49" x="259.36" y="0">i</tspan><tspan class="cls-45" x="263.23" y="0">o</tspan><tspan class="cls-6" x="271.97" y="0">n</tspan><tspan class="cls-11" x="280.94" y="0">s</tspan><tspan class="cls-13" x="286.42" y="0"> </tspan></text><text class="cls-32" transform="translate(83.17 133.05)">a<tspan class="cls-39" x="7.06" y="0">n</tspan><tspan class="cls-52" x="16.04" y="0">d</tspan><tspan class="cls-23" x="25.12" y="0"> </tspan><tspan class="cls-26" x="27.98" y="0">s</tspan><tspan class="cls-22" x="33.46" y="0">e</tspan><tspan class="cls-27" x="40.86" y="0">x</tspan><tspan class="cls-39" x="48" y="0">u</tspan><tspan x="56.91" y="0">a</tspan><tspan class="cls-33" x="63.98" y="0">l</tspan><tspan class="cls-36" x="67.88" y="0"> </tspan><tspan class="cls-22" x="70.74" y="0">e</tspan><tspan class="cls-39" x="78.14" y="0">n</tspan><tspan class="cls-52" x="87.11" y="0">d</tspan><tspan class="cls-39" x="96.2" y="0">u</tspan><tspan class="cls-20" x="105.11" y="0">r</tspan><tspan x="110.98" y="0">a</tspan><tspan class="cls-39" x="118.05" y="0">n</tspan><tspan class="cls-53" x="127.02" y="0">c</tspan><tspan class="cls-22" x="133.25" y="0">e.</tspan></text></g></g></svg>