<svg xmlns="http://www.w3.org/2000/svg" viewBox="0 0 135.03 57.91"><defs><style>.cls-1{fill:#221f1f;}.cls-2{fill:#dadbdb;}.cls-3{fill:#233871;}</style></defs><title>Ресурс 2</title><g id="Слой_2" data-name="Слой 2"><g id="Layer_1" data-name="Layer 1"><polygon class="cls-1" points="131.42 24.84 131.86 24.84 131.86 26.08 132.24 26.08 132.24 24.84 132.68 24.84 132.68 24.52 131.42 24.52 131.42 24.84"/><polygon class="cls-1" points="134.48 24.52 134.14 25.52 134.13 25.52 133.78 24.52 133.24 24.52 133.24 26.08 133.6 26.08 133.59 24.98 133.6 24.98 133.99 26.08 134.25 26.08 134.66 24.98 134.67 24.98 134.66 26.08 135.03 26.08 135.03 24.52 134.48 24.52"/><path class="cls-1" d="M6.86,34.64a4,4,0,0,0,3.28-1.18,5.83,5.83,0,0,0,.94-3.68,5.82,5.82,0,0,0-.94-3.67,4,4,0,0,0-3.28-1.19h-2v0H4.11v9.7Zm6.76-3.92a3.63,3.63,0,0,1-1.89,3.49,10.53,10.53,0,0,1-4.87.85H4.11v7.62H5.56v.42H0v-.42H1.51V24.94H0v-.43H6.86a10.66,10.66,0,0,1,4.87.85,3.62,3.62,0,0,1,1.89,3.49Z"/><path class="cls-1" d="M21.16,24.92v8.83h2.67a4.65,4.65,0,0,0,3.3-.91,4.89,4.89,0,0,0,.92-3.43v-.17q0-4.32-4.13-4.32Zm1.45,18.16H17.05v-.42h1.51V24.92H17.05V24.5h7.87q5.67,0,5.67,3.75v2.16a3.31,3.31,0,0,1-1.06,2.72,5.46,5.46,0,0,1-2.9.93,5.13,5.13,0,0,1,2.84,1.54A3.63,3.63,0,0,1,30.31,38v3.52c0,.87.29,1.3.89,1.3s.92-.41.92-1.23v-.19h.45v.19A1.76,1.76,0,0,1,32.05,43a2.4,2.4,0,0,1-1.54.38,2.58,2.58,0,0,1-2-.67,3.36,3.36,0,0,1-.56-2.18V39.25a5,5,0,0,0-1.46-3.9,5.72,5.72,0,0,0-3.87-1.18H21.16v8.49h1.45Z"/><path class="cls-1" d="M46.69,28.85a4.75,4.75,0,0,0-.8-2.9,3.57,3.57,0,0,0-3-1.29,3.55,3.55,0,0,0-3,1.29,4.75,4.75,0,0,0-.79,2.9V39.08Q39,43,42.85,43t3.84-3.91ZM42.85,24.3A6.74,6.74,0,0,1,48,26.17a6.31,6.31,0,0,1,1.57,4.49v6.6A5.91,5.91,0,0,1,48,41.62a7,7,0,0,1-5.15,1.71,7,7,0,0,1-5.14-1.71,5.9,5.9,0,0,1-1.56-4.36v-6.6a6.31,6.31,0,0,1,1.56-4.49,6.75,6.75,0,0,1,5.14-1.87"/><polygon class="cls-1" points="68.92 24.51 68.92 24.94 67.26 24.94 61.68 43.1 59.39 43.1 53.7 24.94 52.19 24.94 52.19 24.51 57.75 24.51 57.75 24.94 56.3 24.94 61.57 41.75 66.74 24.94 64.92 24.94 64.92 24.51 68.92 24.51"/><path class="cls-1" d="M73.74,22.45c1.09-1.11,1.79-1.83,2.12-2.18l.33-.33.34-.32a9,9,0,0,1,.71-.62,1.23,1.23,0,0,1,.77-.27,1,1,0,0,1,.6.21l.06.06a.7.7,0,0,1,.19.54,1,1,0,0,1-.41.6c-.23.17-.49.34-.79.53l-.44.25-.42.24L74,22.71ZM71.1,36.71h6.73l-3.4-10.87Zm5.51-12.2L82.3,42.68h1.51v.42H78.25v-.42H79.7L78,37.13H71l-1.7,5.55h1.82v.42h-4v-.42h1.66l5.58-18.17Z"/><path class="cls-1" d="M91,24.92v8.83h2.67a4.65,4.65,0,0,0,3.3-.91,4.89,4.89,0,0,0,.92-3.43v-.17q0-4.32-4.13-4.32Zm1.45,18.16H86.93v-.42h1.51V24.92H86.93V24.5H94.8q5.67,0,5.67,3.75v2.16a3.31,3.31,0,0,1-1.06,2.72,5.46,5.46,0,0,1-2.9.93,5.13,5.13,0,0,1,2.84,1.54,3.63,3.63,0,0,1,.84,2.41v3.52c0,.87.3,1.3.89,1.3s.92-.41.92-1.23v-.19h.45v.19a1.76,1.76,0,0,1-.52,1.43,2.4,2.4,0,0,1-1.54.38,2.58,2.58,0,0,1-2-.67,3.36,3.36,0,0,1-.56-2.18V39.25a5,5,0,0,0-1.46-3.9,5.72,5.72,0,0,0-3.87-1.18H91v8.49h1.45Z"/><polygon class="cls-1" points="110.95 24.51 110.95 24.94 109.39 24.94 109.39 42.68 110.95 42.68 110.95 43.1 105.23 43.1 105.23 42.68 106.78 42.68 106.78 24.94 105.23 24.94 105.23 24.51 110.95 24.51"/><polygon class="cls-1" points="129.66 24.51 129.66 24.94 127.92 24.94 127.92 43.1 126.79 43.1 117.08 26.17 117.08 42.68 118.85 42.68 118.85 43.1 114.84 43.1 114.84 42.68 116.59 42.68 116.59 24.94 114.84 24.94 114.84 24.51 119.19 24.51 127.42 38.37 127.42 24.94 125.67 24.94 125.67 24.51 129.66 24.51"/><path class="cls-2" d="M67.45,0,66.31.27l.82,3.55H65.55L64.72.65,63.58,1,64.64,5h7.82l-3.9,3.54L66,8.61a.26.26,0,0,0-.2.1l-1.12,1.44a.27.27,0,0,1-.12.09l-4.88,1.7a.28.28,0,0,0-.16.36l.81,1,.88,1.17h0l6,.35-5.6,5.08H51.07v22.8L67.6,54,83.24,43.1h-4l-11.62,8L53.38,41.27l0-16.33H52.19v-.43h1.17V22.28H72.21l2.36-2.36h0l.1-7,.27-.08h0l0,0L72.37,9.1c.9-.25,4.73-1.5.38-1.5h-.31a2.45,2.45,0,0,0-.38,0l-1,.22L75.5,3.81H68.34ZM61.3,14.48h0m22.64,5.43H78.69a1.32,1.32,0,0,1-.24.23c-.23.17-.49.34-.79.53l-.44.25-.42.24-2,1.12h6.86l0,18.45.61,2h1.51v0l.13-.09Z"/><rect class="cls-1" x="52.19" y="24.51" width="1.17" height="0.42"/><path class="cls-1" d="M78.69,19.91h-1.6l-2.34,2.37h0l2-1.12.42-.24.44-.25c.3-.19.56-.36.79-.53a1.32,1.32,0,0,0,.24-.23m3,20.82v.67l-2.47,1.7h4l.57-.4v0H82.3Z"/><path class="cls-3" d="M36.56,55.07v2.54l.45.11v.07H35.47v-.07l.45-.11V52.7l-.45-.12v-.07h3.05s0,.09,0,.16,0,.12,0,.19v.46c0,.07,0,.13,0,.19s0,.14,0,.21h-.07a2,2,0,0,1-.33-.47,1.45,1.45,0,0,1-.13-.59H36.56v2.26h.72l.34-.68h.07v1.52h-.07l-.34-.69Z"/><path class="cls-3" d="M42.41,56.28a1.77,1.77,0,0,1-.35,1.24,1.28,1.28,0,0,1-1,.39,1.49,1.49,0,0,1-1.62-1.63V52.7L39,52.58v-.07h1.54v.07l-.45.12v3.58a1.72,1.72,0,0,0,.3,1.12,1,1,0,0,0,.76.36,1.11,1.11,0,0,0,.46-.09A1,1,0,0,0,42,57.4a1.32,1.32,0,0,0,.23-.46,2.48,2.48,0,0,0,.08-.66V52.77l-.49-.19v-.07H42.9v.07l-.49.19Z"/><path class="cls-3" d="M46,57.64a1.31,1.31,0,0,1,.13-.59,1.7,1.7,0,0,1,.32-.47h.08a1.49,1.49,0,0,0,0,.21c0,.06,0,.13,0,.2v.45c0,.08,0,.14,0,.2a.61.61,0,0,0,0,.15H43.39v-.07l.46-.11V52.7l-.46-.12v-.07h3.06s0,.1,0,.16,0,.11,0,.19v.46c0,.07,0,.13,0,.19s0,.14,0,.21h-.07a2,2,0,0,1-.33-.47,1.45,1.45,0,0,1-.13-.59H44.49v2.26h.72l.34-.68h.07v1.51h-.07l-.34-.68h-.72v2.57Z"/><path class="cls-3" d="M48.3,57.64h1.36a1.45,1.45,0,0,1,.13-.59,2,2,0,0,1,.33-.47h.07a1.49,1.49,0,0,0,0,.21,1.27,1.27,0,0,0,0,.2c0,.07,0,.13,0,.2s0,.18,0,.25a1.21,1.21,0,0,0,0,.2.61.61,0,0,0,0,.15h-3v-.07l.45-.11V52.7l-.45-.12v-.07h1.55v.07l-.46.12Z"/><polygon class="cls-3" points="54.95 52.51 54.95 52.58 55.44 52.77 54.4 55.45 53.33 52.7 53.78 52.58 53.78 52.51 52.19 52.51 52.19 52.58 52.65 52.7 53.82 55.72 53.82 57.6 53.36 57.72 53.36 57.79 54.91 57.79 54.91 57.72 54.46 57.6 54.46 55.68 55.59 52.77 56.08 52.58 56.08 52.51 54.95 52.51"/><path class="cls-3" d="M58.84,55.15a7.63,7.63,0,0,0-.09-1.29,3.4,3.4,0,0,0-.25-.81,1.09,1.09,0,0,0-.35-.42.68.68,0,0,0-.37-.12.7.7,0,0,0-.37.12,1.07,1.07,0,0,0-.34.42,3,3,0,0,0-.25.81,8.37,8.37,0,0,0,0,2.58,3,3,0,0,0,.25.81,1.07,1.07,0,0,0,.34.42.7.7,0,0,0,.37.12.68.68,0,0,0,.37-.12,1.09,1.09,0,0,0,.35-.42,3.4,3.4,0,0,0,.25-.81,7.63,7.63,0,0,0,.09-1.29m.72,0a4,4,0,0,1-.16,1.21,2.65,2.65,0,0,1-.41.86,1.72,1.72,0,0,1-.56.52,1.43,1.43,0,0,1-.65.17,1.39,1.39,0,0,1-.64-.17,1.85,1.85,0,0,1-.57-.52,2.87,2.87,0,0,1-.41-.86,5,5,0,0,1,0-2.42,2.87,2.87,0,0,1,.41-.86,1.85,1.85,0,0,1,.57-.52,1.39,1.39,0,0,1,.64-.17,1.43,1.43,0,0,1,.65.17,1.72,1.72,0,0,1,.56.52,2.65,2.65,0,0,1,.41.86,4,4,0,0,1,.16,1.21"/><path class="cls-3" d="M63.52,56.28a1.77,1.77,0,0,1-.35,1.24,1.28,1.28,0,0,1-1,.39,1.49,1.49,0,0,1-1.62-1.63V52.7l-.45-.12v-.07h1.54v.07l-.45.12v3.58a1.72,1.72,0,0,0,.3,1.12,1,1,0,0,0,.76.36,1.14,1.14,0,0,0,.46-.09,1,1,0,0,0,.36-.27,1.32,1.32,0,0,0,.23-.46,2.48,2.48,0,0,0,.08-.66V52.77l-.49-.19v-.07H64v.07l-.49.19Z"/><path class="cls-3" d="M67.07,53.83a1.05,1.05,0,0,0-1.17-1.17h-.3V55h.3a1.05,1.05,0,0,0,1.17-1.17M65.9,52.51a3,3,0,0,1,.84.1,1.81,1.81,0,0,1,.59.29,1.16,1.16,0,0,1,.35.42,1.26,1.26,0,0,1,.11.51,1.18,1.18,0,0,1-.06.39,1.46,1.46,0,0,1-.17.3,1,1,0,0,1-.24.22,1.82,1.82,0,0,1-.27.15,2.37,2.37,0,0,1-.73.19,1.89,1.89,0,0,1,.6.15,1.6,1.6,0,0,1,.44.31.9.9,0,0,1,.24.55l.15,1.33a.42.42,0,0,0,.07.2.17.17,0,0,0,.12.06.13.13,0,0,0,.08,0,.21.21,0,0,0,.08-.06.86.86,0,0,0,.07-.1l.07.08a.52.52,0,0,1-.13.17.68.68,0,0,1-.43.17.6.6,0,0,1-.42-.15.56.56,0,0,1-.19-.34l-.15-1.33a1.6,1.6,0,0,0-.1-.43.65.65,0,0,0-.18-.29.74.74,0,0,0-.3-.17,1.84,1.84,0,0,0-.44-.05h-.3V57.6l.45.12v.07H64.5v-.07L65,57.6V52.7l-.46-.12v-.07Z"/><path class="cls-3" d="M71.57,55.75h.26a1.16,1.16,0,0,0,.92-.36,1.72,1.72,0,0,0,.33-1.18A1.75,1.75,0,0,0,72.75,53a1.16,1.16,0,0,0-.92-.36h-.26Zm0,.16v1.7l.45.11v.07H70.47v-.07l.45-.11V52.7l-.45-.12v-.07h1.36a2.75,2.75,0,0,1,.84.12,1.93,1.93,0,0,1,.61.36,1.47,1.47,0,0,1,.38.54,1.65,1.65,0,0,1,.13.68,1.72,1.72,0,0,1-.13.68,1.52,1.52,0,0,1-.38.53,1.93,1.93,0,0,1-.61.36,2.74,2.74,0,0,1-.84.13Z"/><path class="cls-3" d="M75.3,53.6l.75,2.5H74.59Zm.19-1.21L74,57.53l-.49.19v.07h1.13v-.07l-.49-.19.38-1.28H76.1l.41,1.36-.45.11v.07h1.59v-.07l-.46-.11-1.58-5.22Z"/><path class="cls-3" d="M78.33,53.49a.83.83,0,0,0,.18.53,2,2,0,0,0,.45.41,6.62,6.62,0,0,0,.59.37,3.59,3.59,0,0,1,.6.42,2.08,2.08,0,0,1,.45.53,1.5,1.5,0,0,1,.18.76,1.42,1.42,0,0,1-.11.55,1.51,1.51,0,0,1-.29.45,1.44,1.44,0,0,1-.46.29,1.58,1.58,0,0,1-.58.11,1.77,1.77,0,0,1-.49-.06,2.2,2.2,0,0,1-.34-.13,1.34,1.34,0,0,1-.26-.19.65.65,0,0,1-.16.21.46.46,0,0,1-.22.13h-.11c0-.07,0-.15,0-.23s0-.14,0-.22,0-.16,0-.23,0-.17,0-.25,0-.16,0-.23,0-.16,0-.24h.11a2.28,2.28,0,0,0,.5,1,1.22,1.22,0,0,0,.9.33,1,1,0,0,0,.74-.29,1.17,1.17,0,0,0,.28-.81.81.81,0,0,0-.18-.53,1.85,1.85,0,0,0-.46-.41,5.44,5.44,0,0,0-.59-.37,4.13,4.13,0,0,1-.59-.41A2.31,2.31,0,0,1,78,54.4a1.41,1.41,0,0,1-.19-.76,1.29,1.29,0,0,1,.1-.48,1.41,1.41,0,0,1,.27-.4,1.62,1.62,0,0,1,.41-.27,1.45,1.45,0,0,1,.51-.1,1.25,1.25,0,0,1,.4.06,2,2,0,0,1,.29.13,1.64,1.64,0,0,1,.25.19,1.46,1.46,0,0,1,.16-.21.46.46,0,0,1,.22-.13h.11c0,.08,0,.15,0,.23s0,.14,0,.22v.48c0,.09,0,.16,0,.23s0,.16,0,.24h-.11a2.39,2.39,0,0,0-.48-1,1,1,0,0,0-.77-.32.81.81,0,0,0-.61.25.93.93,0,0,0-.25.69"/><path class="cls-3" d="M81.69,53.49a.83.83,0,0,0,.18.53,2,2,0,0,0,.45.41,6.62,6.62,0,0,0,.59.37,3.22,3.22,0,0,1,.6.42,2.08,2.08,0,0,1,.45.53,1.5,1.5,0,0,1,.18.76,1.42,1.42,0,0,1-.1.55,1.54,1.54,0,0,1-.3.45,1.44,1.44,0,0,1-.46.29,1.56,1.56,0,0,1-.57.11,1.68,1.68,0,0,1-.49-.06,1.62,1.62,0,0,1-.34-.13,1.17,1.17,0,0,1-.27-.19.65.65,0,0,1-.16.21.46.46,0,0,1-.22.13h-.11c0-.07,0-.15,0-.23s0-.14,0-.22a1.85,1.85,0,0,0,0-.23,2,2,0,0,0,0-.25c0-.09,0-.16,0-.23s0-.16,0-.24h.11a2.18,2.18,0,0,0,.51,1,1.18,1.18,0,0,0,.89.33,1,1,0,0,0,.74-.29,1.13,1.13,0,0,0,.28-.81.81.81,0,0,0-.18-.53,2,2,0,0,0-.45-.41,6.83,6.83,0,0,0-.6-.37,4.13,4.13,0,0,1-.59-.41,2.31,2.31,0,0,1-.45-.54,1.5,1.5,0,0,1-.18-.76,1.28,1.28,0,0,1,.09-.48,1.26,1.26,0,0,1,.28-.4,1.41,1.41,0,0,1,.4-.27,1.45,1.45,0,0,1,.51-.1,1.25,1.25,0,0,1,.4.06,2,2,0,0,1,.29.13,1.26,1.26,0,0,1,.25.19,1,1,0,0,1,.17-.21.43.43,0,0,1,.21-.13h.11c0,.08,0,.15,0,.23s0,.14,0,.22v.48c0,.09,0,.16,0,.23s0,.16,0,.24H83.8a2.27,2.27,0,0,0-.48-1,1,1,0,0,0-.76-.32.81.81,0,0,0-.62.25.93.93,0,0,0-.25.69"/><polygon class="cls-3" points="84.71 52.51 84.71 52.58 85.16 52.7 85.16 57.6 84.71 57.72 84.71 57.79 86.26 57.79 86.26 57.72 85.8 57.6 85.8 52.7 86.26 52.58 86.26 52.51 84.71 52.51"/><path class="cls-3" d="M89.73,55.15a7.63,7.63,0,0,0-.09-1.29,3.4,3.4,0,0,0-.25-.81,1.09,1.09,0,0,0-.35-.42.68.68,0,0,0-.37-.12.7.7,0,0,0-.37.12,1.07,1.07,0,0,0-.34.42,3,3,0,0,0-.25.81,9.29,9.29,0,0,0,0,2.58,3,3,0,0,0,.25.81,1.07,1.07,0,0,0,.34.42.7.7,0,0,0,.37.12.68.68,0,0,0,.37-.12,1.09,1.09,0,0,0,.35-.42,3.4,3.4,0,0,0,.25-.81,7.63,7.63,0,0,0,.09-1.29m.72,0a4,4,0,0,1-.16,1.21,2.86,2.86,0,0,1-.4.86,1.85,1.85,0,0,1-.57.52,1.43,1.43,0,0,1-.65.17,1.39,1.39,0,0,1-.64-.17,1.85,1.85,0,0,1-.57-.52,2.87,2.87,0,0,1-.41-.86,5,5,0,0,1,0-2.42,2.87,2.87,0,0,1,.41-.86,1.85,1.85,0,0,1,.57-.52,1.39,1.39,0,0,1,.64-.17,1.43,1.43,0,0,1,.65.17,1.85,1.85,0,0,1,.57.52,2.86,2.86,0,0,1,.4.86,4,4,0,0,1,.16,1.21"/><polygon class="cls-3" points="93.73 52.51 93.73 52.58 94.22 52.77 94.22 56.47 92.07 52.51 91.05 52.51 91.05 52.58 91.54 52.73 91.54 57.53 91.05 57.72 91.05 57.79 92.19 57.79 92.19 57.72 91.69 57.53 91.69 53.15 94.26 57.87 94.38 57.87 94.38 52.77 94.87 52.58 94.87 52.51 93.73 52.51"/></g></g></svg>